<svg xmlns="http://www.w3.org/2000/svg" version="1.1" xmlns:xlink="http://www.w3.org/1999/xlink" xmlns:svgjs="http://svgjs.dev/svgjs" width="2000" height="1500" viewBox="0 0 2000 1500"><rect width="2000" height="1500" fill="#ece6d6"></rect><g transform="matrix(0.75,0,0,0.75,249.090909090909,550.8288600764137)"><svg viewBox="0 0 396 105" data-background-color="#ece6d6" preserveAspectRatio="xMidYMid meet" height="530" width="2000" xmlns="http://www.w3.org/2000/svg" xmlns:xlink="http://www.w3.org/1999/xlink"><g id="tight-bounds" transform="matrix(1,0,0,1,0.24000000000003752,0.11124450811715292)"><svg viewBox="0 0 395.5199999999999 104.7775109837657" height="104.7775109837657" width="395.5199999999999"><g><svg viewBox="0 0 620.5625399991507 164.39370537741343" height="104.7775109837657" width="395.5199999999999"><g><rect width="6.599951113281837" height="142.74417254189297" x="201.16522995057602" y="10.82476641776023" fill="#b2572b" opacity="1" stroke-width="0" stroke="transparent" fill-opacity="1" class="rect-qz-0" data-fill-palette-color="primary" rx="1%" id="qz-0" data-palette-color="#b2572b"></rect></g><g transform="matrix(1,0,0,1,225.04253999915062,22.720114129584637)"><svg viewBox="0 0 395.52 118.95347711824415" height="118.95347711824415" width="395.52"><g id="textblocktransform"><svg viewBox="0 0 395.52 118.95347711824415" height="118.95347711824415" width="395.52" id="textblock"><g><svg viewBox="0 0 395.52 73.18557979334099" height="73.18557979334099" width="395.52"><g transform="matrix(1,0,0,1,0,0)"><svg width="395.52" viewBox="-2.7 -36.05 261.27 48.349999999999994" height="73.18557979334099" data-palette-color="#b2572b"><path d="M6.7 1Q6.7 4.15 5.73 6.05 4.75 7.95 3.15 7.95L3.15 7.95Q1.45 7.95 1.45 6.2L1.45 6.2 1.5 4.75Q1.5 3.7 0.95 3.1 0.4 2.5-0.6 2.5L-0.6 2.5Q-1.55 2.5-2.13 3.1-2.7 3.7-2.7 4.7L-2.7 4.7Q-2.7 6.35-1.15 7.45 0.4 8.55 2.75 8.55L2.75 8.55Q4.6 8.55 6.25 7.73 7.9 6.9 8.9 5.45L8.9 5.45Q9.8 4.15 10.18 2.27 10.55 0.4 10.55-2.85L10.55-2.85 10.55-33.7 14.65-34.1 14.65-34.5 2.6-34.5 2.6-34.1 6.7-33.7 6.7 1ZM26.5-21.7Q29.4-21.7 31.65-20.3 33.9-18.9 35.15-16.38 36.4-13.85 36.4-10.6L36.4-10.6Q36.4-7.35 35.15-4.83 33.9-2.3 31.65-0.9 29.4 0.5 26.5 0.5L26.5 0.5Q23.6 0.5 21.35-0.9 19.1-2.3 17.85-4.83 16.6-7.35 16.6-10.6L16.6-10.6Q16.6-13.85 17.85-16.38 19.1-18.9 21.35-20.3 23.6-21.7 26.5-21.7L26.5-21.7ZM20.3-10.6Q20.3-5.6 21.95-2.8 23.6 0 26.5 0L26.5 0Q29.4 0 31.05-2.8 32.7-5.6 32.7-10.6L32.7-10.6Q32.7-15.6 31.05-18.4 29.4-21.2 26.5-21.2L26.5-21.2Q23.6-21.2 21.95-18.4 20.3-15.6 20.3-10.6L20.3-10.6ZM49.75-3.65L44.45-18.65Q44.1-19.65 44.1-19.95L44.1-19.95Q44.1-20.35 44.62-20.53 45.15-20.7 46.95-20.8L46.95-20.8 46.95-21.2 37.3-21.2 37.3-20.8Q39-20.7 39.62-20.38 40.25-20.05 40.65-19.1L40.65-19.1 48.35 0.9 46.4 6.85Q45.75 8.8 45.2 9.63 44.65 10.45 44 10.45L44 10.45Q43.55 10.45 43.32 10.13 43.1 9.8 42.9 9.1L42.9 9.1Q42.65 8.2 42.25 7.7 41.85 7.2 40.9 7.2L40.9 7.2Q39.9 7.2 39.32 7.8 38.75 8.4 38.75 9.4L38.75 9.4Q38.75 10.65 39.7 11.48 40.65 12.3 42.05 12.3L42.05 12.3Q43.75 12.3 45.05 10.85L45.05 10.85Q46.1 9.85 46.95 7.2L46.95 7.2 55.3-17.35Q55.84-19.05 56.85-19.75 57.85-20.45 60.25-20.8L60.25-20.8 60.25-21.2 51.3-21.2 51.3-20.8Q53.3-20.5 54.05-20.13 54.8-19.75 54.8-18.95L54.8-18.95Q54.8-18.4 54.5-17.4L54.5-17.4 49.95-3.65 49.75-3.65ZM65.49 0.35Q63.59 0.35 62.37-0.98 61.14-2.3 61.14-4.4L61.14-4.4Q61.14-6.9 63.42-8.4 65.69-9.9 71.14-11L71.14-11 71.14-15.55Q71.14-18.45 70.49-19.58 69.84-20.7 68.24-20.7L68.24-20.7Q66.69-20.7 65.74-19.88 64.79-19.05 64.79-17.65L64.79-17.65 64.84-16.3Q64.84-15.05 64.37-14.33 63.89-13.6 63.04-13.6L63.04-13.6Q62.29-13.6 61.82-14.1 61.34-14.6 61.34-15.4L61.34-15.4Q61.34-16.6 62.52-18.03 63.69-19.45 65.54-20.4L65.54-20.4Q67.79-21.65 70.19-21.65L70.19-21.65Q71.59-21.65 72.57-21.1 73.54-20.55 73.99-19.55L73.99-19.55Q74.24-18.9 74.32-17.95 74.39-17 74.39-14.3L74.39-14.3 74.39-4.75Q74.39-2.95 74.74-2.27 75.09-1.6 75.99-1.6L75.99-1.6Q77.34-1.6 77.99-2.55L77.99-2.55 78.19-2.45Q77.59-1.2 76.59-0.53 75.59 0.15 74.44 0.15L74.44 0.15Q73.14 0.15 72.29-0.63 71.44-1.4 71.34-2.7L71.34-2.7 71.19-2.75Q70.04-1.3 68.54-0.48 67.04 0.35 65.49 0.35L65.49 0.35ZM67.64-1.55Q68.69-1.55 69.62-2.02 70.54-2.5 71.14-3.4L71.14-3.4 71.14-10.45Q68.54-9.8 67.12-9.15 65.69-8.5 65.09-7.6 64.49-6.7 64.49-5.35L64.49-5.35Q64.49-3.6 65.34-2.58 66.19-1.55 67.64-1.55L67.64-1.55ZM96.74 1Q96.74 4.15 95.76 6.05 94.79 7.95 93.19 7.95L93.19 7.95Q91.49 7.95 91.49 6.2L91.49 6.2 91.54 4.75Q91.54 3.7 90.99 3.1 90.44 2.5 89.44 2.5L89.44 2.5Q88.49 2.5 87.91 3.1 87.34 3.7 87.34 4.7L87.34 4.7Q87.34 6.35 88.89 7.45 90.44 8.55 92.79 8.55L92.79 8.55Q94.64 8.55 96.29 7.73 97.94 6.9 98.94 5.45L98.94 5.45Q99.84 4.15 100.21 2.27 100.59 0.4 100.59-2.85L100.59-2.85 100.59-33.7 104.69-34.1 104.69-34.5 92.64-34.5 92.64-34.1 96.74-33.7 96.74 1ZM123.14-5.1L123.59-5.7 123.79-5.6 123.59-5.05Q122.59-2.4 120.61-0.95 118.64 0.5 115.89 0.5L115.89 0.5Q113.19 0.5 111.09-0.9 108.98-2.3 107.81-4.8 106.64-7.3 106.64-10.55L106.64-10.55Q106.64-13.8 107.89-16.35 109.14-18.9 111.44-20.3 113.73-21.7 116.69-21.7L116.69-21.7Q120.19-21.7 122.06-19.63 123.94-17.55 123.99-13.6L123.99-13.6 123.69-13.35 110.19-13.35Q110.09-12.05 110.09-11.3L110.09-11.3Q110.09-6.75 111.94-4.38 113.79-2 117.09-2L117.09-2Q118.79-2 120.36-2.78 121.94-3.55 123.14-5.1L123.14-5.1ZM116.14-21.15Q113.79-21.15 112.23-19.2 110.69-17.25 110.23-13.9L110.23-13.9 119.94-14.25Q120.09-14.85 120.09-16.25L120.09-16.25Q120.09-18.95 119.06-20.05 118.04-21.15 116.14-21.15L116.14-21.15ZM148.78-21.2L156.83-21.2 156.83-20.8Q154.63-20.45 153.73-19.78 152.83-19.1 152.28-17.35L152.28-17.35 146.58 0.15 146.03 0.15 140.83-15.1 135.83 0.15 135.28 0.15 128.53-19.1Q128.33-19.75 128.08-20.05 127.83-20.35 127.31-20.5 126.78-20.65 125.53-20.8L125.53-20.8 125.53-21.2 134.48-21.2 134.48-20.8Q132.98-20.7 132.51-20.48 132.03-20.25 132.03-19.8L132.03-19.8Q132.03-19.45 132.33-18.6L132.33-18.6 136.68-5.3 136.88-5.3 140.43-16.2 139.53-18.85Q139.18-19.8 138.66-20.23 138.13-20.65 136.78-20.8L136.78-20.8 136.78-21.2 145.23-21.2 145.23-20.8Q143.73-20.7 143.26-20.48 142.78-20.25 142.78-19.8L142.78-19.8Q142.78-19.45 143.08-18.6L143.08-18.6 147.48-5.3 147.68-5.3 151.53-17.4Q151.83-18.4 151.83-18.95L151.83-18.95Q151.83-19.75 151.18-20.13 150.53-20.5 148.78-20.8L148.78-20.8 148.78-21.2ZM173.88-5.1L174.33-5.7 174.53-5.6 174.33-5.05Q173.33-2.4 171.36-0.95 169.38 0.5 166.63 0.5L166.63 0.5Q163.93 0.5 161.83-0.9 159.73-2.3 158.56-4.8 157.38-7.3 157.38-10.55L157.38-10.55Q157.38-13.8 158.63-16.35 159.88-18.9 162.18-20.3 164.48-21.7 167.43-21.7L167.43-21.7Q170.93-21.7 172.81-19.63 174.68-17.55 174.73-13.6L174.73-13.6 174.43-13.35 160.93-13.35Q160.83-12.05 160.83-11.3L160.83-11.3Q160.83-6.75 162.68-4.38 164.53-2 167.83-2L167.83-2Q169.53-2 171.11-2.78 172.68-3.55 173.88-5.1L173.88-5.1ZM166.88-21.15Q164.53-21.15 162.98-19.2 161.43-17.25 160.98-13.9L160.98-13.9 170.68-14.25Q170.83-14.85 170.83-16.25L170.83-16.25Q170.83-18.95 169.81-20.05 168.78-21.15 166.88-21.15L166.88-21.15ZM183.73-0.8L183.73-36.05 183.33-36.05 177.53-34.1 177.53-33.75 180.48-32.65 180.48-0.8 177.43-0.4 177.43 0 186.78 0 186.78-0.4 183.73-0.8ZM194.88-0.8L194.88-36.05 194.48-36.05 188.68-34.1 188.68-33.75 191.63-32.65 191.63-0.8 188.58-0.4 188.58 0 197.93 0 197.93-0.4 194.88-0.8ZM217.32-5.1L217.77-5.7 217.97-5.6 217.77-5.05Q216.77-2.4 214.8-0.95 212.82 0.5 210.07 0.5L210.07 0.5Q207.37 0.5 205.27-0.9 203.17-2.3 202-4.8 200.82-7.3 200.82-10.55L200.82-10.55Q200.82-13.8 202.07-16.35 203.32-18.9 205.62-20.3 207.92-21.7 210.87-21.7L210.87-21.7Q214.37-21.7 216.25-19.63 218.12-17.55 218.17-13.6L218.17-13.6 217.87-13.35 204.37-13.35Q204.27-12.05 204.27-11.3L204.27-11.3Q204.27-6.75 206.12-4.38 207.97-2 211.27-2L211.27-2Q212.97-2 214.55-2.78 216.12-3.55 217.32-5.1L217.32-5.1ZM210.32-21.15Q207.97-21.15 206.42-19.2 204.87-17.25 204.42-13.9L204.42-13.9 214.12-14.25Q214.27-14.85 214.27-16.25L214.27-16.25Q214.27-18.95 213.25-20.05 212.22-21.15 210.32-21.15L210.32-21.15ZM232.62-21.7Q233.62-21.7 234.32-21.03 235.02-20.35 235.02-19.4L235.02-19.4Q235.02-18.6 234.47-18.05 233.92-17.5 233.12-17.5L233.12-17.5Q232.62-17.5 232.3-17.73 231.97-17.95 231.62-18.4L231.62-18.4Q231.27-18.8 231-19 230.72-19.2 230.32-19.2L230.32-19.2Q229.52-19.2 228.7-18.25 227.87-17.3 227.52-16.05L227.52-16.05 227.52-0.8 231.52-0.4 231.52 0 221.22 0 221.22-0.4 224.27-0.8 224.27-18.3 221.32-19.4 221.32-19.75 226.97-21.7 227.37-21.7 227.37-17.3Q230.17-21.7 232.62-21.7L232.62-21.7ZM248.07-3.65L242.77-18.65Q242.42-19.65 242.42-19.95L242.42-19.95Q242.42-20.35 242.94-20.53 243.47-20.7 245.27-20.8L245.27-20.8 245.27-21.2 235.62-21.2 235.62-20.8Q237.32-20.7 237.94-20.38 238.57-20.05 238.97-19.1L238.97-19.1 246.67 0.9 244.72 6.85Q244.07 8.8 243.52 9.63 242.97 10.45 242.32 10.45L242.32 10.45Q241.87 10.45 241.64 10.13 241.42 9.8 241.22 9.1L241.22 9.1Q240.97 8.2 240.57 7.7 240.17 7.2 239.22 7.2L239.22 7.2Q238.22 7.2 237.64 7.8 237.07 8.4 237.07 9.4L237.07 9.4Q237.07 10.65 238.02 11.48 238.97 12.3 240.37 12.3L240.37 12.3Q242.07 12.3 243.37 10.85L243.37 10.85Q244.42 9.85 245.27 7.2L245.27 7.2 253.62-17.35Q254.17-19.05 255.17-19.75 256.17-20.45 258.57-20.8L258.57-20.8 258.57-21.2 249.62-21.2 249.62-20.8Q251.62-20.5 252.37-20.13 253.12-19.75 253.12-18.95L253.12-18.95Q253.12-18.4 252.82-17.4L252.82-17.4 248.27-3.65 248.07-3.65Z" opacity="1" transform="matrix(1,0,0,1,0,0)" fill="#b2572b" class="wordmark-text-0" data-fill-palette-color="primary" id="text-0"></path></svg></g></svg></g><g transform="matrix(1,0,0,1,0,90.46293872863376)"><svg viewBox="0 0 232.20979199999996 28.490538389610393" height="28.490538389610393" width="232.20979199999996"><g transform="matrix(1,0,0,1,0,0)"><svg width="232.20979199999996" viewBox="2.3 -41.4 438.84999999999997 53.85" height="28.490538389610393" data-palette-color="#b2572b"><path d="M6.45-2.95L6.45-34.05 2.35-34.65 2.35-37.15 27.8-37.15 28.5-29.4 25.65-29.4 24.2-34.25 11.8-34.55 11.8-20.45 20.15-20.6 20.85-24.75 23.6-24.75 23.6-13.25 20.85-13.25 20.15-17.55 11.8-17.7 11.8-2.8 25.9-3.3 28.55-9.6 31.5-8.7 30.05 0 2.3 0 2.3-2.45 6.45-2.95ZM37.8-2.9L37.8-23.9 34.2-24.8 34.2-27.5 41.35-28.4 41.5-28.4 42.55-27.5 42.55-25.4 42.5-24.2Q44.3-25.8 47.25-27.1 50.2-28.4 52.9-28.4L52.9-28.4Q56.05-28.4 57.77-27.2 59.5-26 60.2-23.53 60.9-21.05 60.9-16.85L60.9-16.85 60.9-2.85 64.4-2.5 64.4 0 52.55 0 52.55-2.45 55.65-2.85 55.65-16.9Q55.65-19.85 55.25-21.53 54.85-23.2 53.75-24.03 52.65-24.85 50.55-24.85L50.55-24.85Q48.75-24.85 46.7-23.95 44.65-23.05 43.05-21.85L43.05-21.85 43.05-2.9 46.45-2.45 46.45 0 34.65 0 34.65-2.45 37.8-2.9ZM73.84-32.75Q72.3-32.75 71.5-33.65 70.7-34.55 70.7-35.95L70.7-35.95Q70.7-37.55 71.67-38.6 72.65-39.65 74.34-39.65L74.34-39.65Q76.05-39.65 76.84-38.75 77.65-37.85 77.65-36.45L77.65-36.45Q77.65-34.75 76.67-33.75 75.7-32.75 73.9-32.75L73.9-32.75 73.84-32.75ZM67.84-24.65L67.84-27.45 75.59-28.4 75.7-28.4 76.8-27.5 76.8-0.35Q76.8 3.8 75.59 6.63 74.4 9.45 72.34 10.8 70.3 12.15 67.75 12.15L67.75 12.15Q65.8 12.15 65.45 11.95L65.45 11.95 65.2 9.6Q65.59 9.65 66.37 9.5 67.15 9.35 67.95 9.05L67.95 9.05Q70 8.35 70.82 5.68 71.65 3 71.65-1.5L71.65-1.5 71.65-23.75 67.84-24.65ZM83.84-13.95Q83.84-18.45 85.69-21.75 87.54-25.05 90.57-26.78 93.59-28.5 97.04-28.5L97.04-28.5Q103.34-28.5 106.52-24.5 109.69-20.5 109.69-14L109.69-14Q109.69-9.45 107.84-6.15 105.99-2.85 102.97-1.15 99.94 0.55 96.49 0.55L96.49 0.55Q90.19 0.55 87.02-3.45 83.84-7.45 83.84-13.95L83.84-13.95ZM96.79-2.3Q100.24-2.3 102.09-5.15 103.94-8 103.94-13.6L103.94-13.6Q103.94-19.15 102.24-22.4 100.54-25.65 96.79-25.65L96.79-25.65Q93.34-25.65 91.47-22.8 89.59-19.95 89.59-14.35L89.59-14.35Q89.59-8.8 91.34-5.55 93.09-2.3 96.79-2.3L96.79-2.3ZM118.29 12.45Q117.44 12.45 116.62 12.35 115.79 12.25 115.44 12.05L115.44 12.05 115.44 7.7Q115.74 7.9 116.62 8 117.49 8.1 118.29 8.1L118.29 8.1Q120.69 8.1 122.52 6.43 124.34 4.75 126.04 0L126.04 0 123.64 0 114.14-24.75 111.84-25.4 111.84-27.75 123.89-27.75 123.89-25.4 120.04-24.8 124.94-10.05 127.24-2.75 129.39-10.1 133.84-24.8 130.49-25.4 130.49-27.75 140.54-27.75 140.54-25.4 138.04-24.8Q130.69-2.3 129.39 0.75L129.39 0.75Q127.69 5.05 126.29 7.48 124.89 9.9 122.99 11.18 121.09 12.45 118.29 12.45L118.29 12.45ZM163.24 0.5Q160.38 0.5 158.99-0.8 157.59-2.1 157.59-5.25L157.59-5.25 157.59-24.45 153.99-24.45 153.99-26.7Q154.24-26.75 155.38-27.05 156.53-27.35 156.94-27.6L156.94-27.6Q157.74-28.05 158.19-29.4L158.19-29.4Q158.59-30.35 159.13-32.45 159.69-34.55 159.78-34.95L159.78-34.95 162.74-34.95 162.84-27.75 171.19-27.75 171.19-24.45 162.84-24.45 162.84-9.1Q162.84-6.25 163.01-5.1 163.19-3.95 163.76-3.6 164.34-3.25 165.74-3.25L165.74-3.25Q167.09-3.25 168.71-3.6 170.34-3.95 171.24-4.35L171.24-4.35 171.99-2.1Q170.78-1.2 168.11-0.35 165.44 0.5 163.24 0.5L163.24 0.5ZM177.73-2.85L177.73-37.3 173.53-37.85 173.53-40 181.68-40.95 181.78-40.95 182.88-40.2 182.88-28.6 182.68-24.35Q184.28-25.8 187.08-27.1 189.88-28.4 192.73-28.4L192.73-28.4Q195.88-28.4 197.63-27.2 199.38-26 200.08-23.53 200.78-21.05 200.78-16.85L200.78-16.85 200.78-2.9 204.28-2.45 204.28 0 192.33 0 192.33-2.45 195.58-2.9 195.58-16.9Q195.58-19.85 195.18-21.53 194.78-23.2 193.68-24.03 192.58-24.85 190.38-24.85L190.38-24.85Q188.58-24.85 186.53-23.95 184.48-23.05 182.93-21.85L182.93-21.85 182.93-2.9 186.38-2.45 186.38 0 174.73 0 174.73-2.45 177.73-2.85ZM220.28 0.55Q214.23 0.55 211.06-3.4 207.88-7.35 207.88-13.95L207.88-13.95Q207.88-18.3 209.53-21.6 211.18-24.9 214.16-26.7 217.13-28.5 220.93-28.5L220.93-28.5Q225.58-28.5 228.16-25.93 230.73-23.35 230.88-18.55L230.88-18.55Q230.88-15.5 230.53-13.9L230.53-13.9 213.33-13.9Q213.43-8.95 215.63-5.93 217.83-2.9 221.88-2.9L221.88-2.9Q223.88-2.9 226.06-3.63 228.23-4.35 229.43-5.35L229.43-5.35 230.38-3.15Q228.93-1.65 226.08-0.55 223.23 0.55 220.28 0.55L220.28 0.55ZM213.38-16.55L225.38-16.55Q225.53-17.6 225.53-18.7L225.53-18.7Q225.48-21.95 224.16-23.83 222.83-25.7 219.98-25.7L219.98-25.7Q217.08-25.7 215.36-23.6 213.63-21.5 213.38-16.55L213.38-16.55ZM244.47 6.85Q246.68 6.2 248.43 4.53 250.18 2.85 250.97 0.4L250.97 0.4Q251.63-1.5 251.83-4.03 252.03-6.55 252.03-11.8L252.03-11.8 252.03-34 247.22-34.65 247.22-37.15 261.93-37.15 261.93-34.65 257.38-34 257.38-13.75 257.38-11.4Q257.38-7.45 257.27-5.05 257.18-2.65 256.82-0.95L256.82-0.95Q255.93 3.05 252.88 5.65 249.83 8.25 245.83 8.95L245.83 8.95 244.47 6.85ZM266.07-13.95Q266.07-18.45 267.92-21.75 269.77-25.05 272.8-26.78 275.82-28.5 279.27-28.5L279.27-28.5Q285.57-28.5 288.75-24.5 291.92-20.5 291.92-14L291.92-14Q291.92-9.45 290.07-6.15 288.22-2.85 285.2-1.15 282.17 0.55 278.72 0.55L278.72 0.55Q272.42 0.55 269.25-3.45 266.07-7.45 266.07-13.95L266.07-13.95ZM279.02-2.3Q282.47-2.3 284.32-5.15 286.17-8 286.17-13.6L286.17-13.6Q286.17-19.15 284.47-22.4 282.77-25.65 279.02-25.65L279.02-25.65Q275.57-25.65 273.7-22.8 271.82-19.95 271.82-14.35L271.82-14.35Q271.82-8.8 273.57-5.55 275.32-2.3 279.02-2.3L279.02-2.3ZM300.52 12.45Q299.67 12.45 298.84 12.35 298.02 12.25 297.67 12.05L297.67 12.05 297.67 7.7Q297.97 7.9 298.84 8 299.72 8.1 300.52 8.1L300.52 8.1Q302.92 8.1 304.74 6.43 306.57 4.75 308.27 0L308.27 0 305.87 0 296.37-24.75 294.07-25.4 294.07-27.75 306.12-27.75 306.12-25.4 302.27-24.8 307.17-10.05 309.47-2.75 311.62-10.1 316.07-24.8 312.72-25.4 312.72-27.75 322.77-27.75 322.77-25.4 320.27-24.8Q312.92-2.3 311.62 0.75L311.62 0.75Q309.92 5.05 308.52 7.48 307.12 9.9 305.22 11.18 303.32 12.45 300.52 12.45L300.52 12.45ZM325.07-7.5Q325.07-12.2 329.77-14.43 334.47-16.65 341.67-16.8L341.67-16.8 341.67-18.2Q341.67-20.55 341.17-21.9 340.67-23.25 339.44-23.88 338.22-24.5 335.97-24.5L335.97-24.5Q333.42-24.5 331.39-23.78 329.37-23.05 327.37-22L327.37-22 326.12-24.6Q326.77-25.15 328.52-26.05 330.27-26.95 332.57-27.65 334.87-28.35 337.17-28.35L337.17-28.35Q340.72-28.35 342.79-27.38 344.87-26.4 345.77-24.25 346.67-22.1 346.67-18.5L346.67-18.5 346.67-2.45 349.62-2.45 349.62-0.25Q348.62 0 347.09 0.25 345.57 0.5 344.42 0.5L344.42 0.5Q343.02 0.5 342.52 0.08 342.02-0.35 342.02-1.8L342.02-1.8 342.02-3.45Q340.52-1.95 338.34-0.7 336.17 0.55 333.42 0.55L333.42 0.55Q329.82 0.55 327.44-1.53 325.07-3.6 325.07-7.5L325.07-7.5ZM335.57-2.85Q336.87-2.85 338.57-3.65 340.27-4.45 341.67-5.55L341.67-5.55 341.67-14.15Q336.22-14.15 333.44-12.48 330.67-10.8 330.67-8.1L330.67-8.1Q330.67-5.4 331.99-4.13 333.32-2.85 335.57-2.85L335.57-2.85ZM368.61-2.9L368.61-37.3 364.56-37.85 364.56-40 372.61-40.95 372.71-40.95 373.81-40.2 373.81-2.85 378.06-2.45 378.06 0 364.56 0 364.56-2.45 368.61-2.9ZM387.51-32.75Q385.91-32.75 385.11-33.65 384.31-34.55 384.31-35.95L384.31-35.95Q384.31-37.55 385.29-38.6 386.26-39.65 387.96-39.65L387.96-39.65Q389.66-39.65 390.46-38.75 391.26-37.85 391.26-36.45L391.26-36.45Q391.26-34.75 390.29-33.75 389.31-32.75 387.56-32.75L387.56-32.75 387.51-32.75ZM385.51-2.9L385.51-23.9 381.71-24.8 381.71-27.45 389.46-28.4 389.56-28.4 390.71-27.5 390.71-2.85 394.71-2.45 394.71 0 381.46 0 381.46-2.45 385.51-2.9ZM402.26-2.9L402.26-24.45 397.56-24.45 397.56-26.75 402.26-27.7 402.26-30.05Q402.26-33.15 403.88-35.75 405.51-38.35 408.13-39.88 410.76-41.4 413.71-41.4L413.71-41.4Q415.41-41.4 416.66-40.95L416.66-40.95 416.66-35.95Q416.21-36.35 414.88-36.73 413.56-37.1 411.96-37.1L411.96-37.1Q409.61-37.1 408.53-35.88 407.46-34.65 407.46-31.65L407.46-31.65 407.46-27.7 414.36-27.7 414.36-24.45 407.46-24.45 407.46-2.85 413.01-2.45 413.01 0 398.01 0 398.01-2.45 402.26-2.9ZM430.56 0.55Q424.5 0.55 421.33-3.4 418.15-7.35 418.15-13.95L418.15-13.95Q418.15-18.3 419.81-21.6 421.45-24.9 424.43-26.7 427.4-28.5 431.2-28.5L431.2-28.5Q435.86-28.5 438.43-25.93 441-23.35 441.15-18.55L441.15-18.55Q441.15-15.5 440.81-13.9L440.81-13.9 423.61-13.9Q423.7-8.95 425.9-5.93 428.11-2.9 432.15-2.9L432.15-2.9Q434.15-2.9 436.33-3.63 438.5-4.35 439.7-5.35L439.7-5.35 440.65-3.15Q439.2-1.65 436.36-0.55 433.5 0.55 430.56 0.55L430.56 0.55ZM423.65-16.55L435.65-16.55Q435.81-17.6 435.81-18.7L435.81-18.7Q435.75-21.95 434.43-23.83 433.11-25.7 430.25-25.7L430.25-25.7Q427.36-25.7 425.63-23.6 423.9-21.5 423.65-16.55L423.65-16.55Z" opacity="1" transform="matrix(1,0,0,1,0,0)" fill="#b2572b" class="slogan-text-1" data-fill-palette-color="secondary" id="text-1"></path></svg></g></svg></g></svg></g></svg></g><g><svg viewBox="0 0 183.88787101528325 164.39370537741343" height="164.39370537741343" width="183.88787101528325"><g><svg xmlns="http://www.w3.org/2000/svg" xmlns:xlink="http://www.w3.org/1999/xlink" version="1.1" x="0" y="0" viewBox="6.944 9.906 82.114 73.40899999999999" enable-background="new 0 0 96.001 96" xml:space="preserve" height="164.39370537741343" width="183.88787101528325" class="icon-icon-0" data-fill-palette-color="accent" id="icon-0"><polygon points="27.878,25.604 32.75,9.906 18.337,9.906 6.97,25.604 " fill="#d6acae" data-fill-palette-color="accent"></polygon><polygon points="34.319,9.906 29.447,25.604 66.555,25.604 61.683,9.906 " fill="#d6acae" data-fill-palette-color="accent"></polygon><polygon points="6.944,27.104 46.438,83.315 27.888,27.104 " fill="#d6acae" data-fill-palette-color="accent"></polygon><polygon points="29.467,27.104 48,83.265 66.535,27.104 " fill="#d6acae" data-fill-palette-color="accent"></polygon><polygon points="49.563,83.315 89.058,27.104 68.114,27.104 " fill="#d6acae" data-fill-palette-color="accent"></polygon><polygon points="89.032,25.604 77.665,9.906 63.252,9.906 68.124,25.604 " fill="#d6acae" data-fill-palette-color="accent"></polygon></svg></g></svg></g></svg></g><defs></defs></svg><rect width="395.5199999999999" height="104.7775109837657" fill="none" stroke="none" visibility="hidden"></rect></g></svg></g></svg>